<svg version="1.1" id="Layer_1" xmlns="http://www.w3.org/2000/svg" xmlns:xlink="http://www.w3.org/1999/xlink" x="0px" y="0px"
	 width="100%" viewBox="0 0 640 728" enable-background="new 0 0 640 728" xml:space="preserve">
<path fill="#21B5C2" opacity="1.000000" stroke="none" 
	d="
M641.000000,197.000000 
	C641.000000,309.022003 641.000000,421.044037 640.676819,533.708008 
	C637.101685,546.900085 629.978699,556.403870 618.653503,562.932129 
	C527.097534,615.708496 435.573456,668.540161 344.068176,721.404358 
	C328.531769,730.380066 313.249756,730.284485 297.724518,721.292786 
	C248.472595,692.767517 199.138977,664.383362 149.847214,635.926819 
	C107.905579,611.713562 66.021858,587.399536 24.014410,563.301086 
	C13.203060,557.098938 5.825034,548.450256 2.256200,536.520691 
	C1.991100,535.634521 1.425747,534.838135 0.999994,534.000000 
	C1.000000,421.644653 1.000000,309.289307 1.323205,196.291992 
	C4.898088,183.100769 12.020376,173.597549 23.344427,167.069061 
	C115.037102,114.206833 206.686401,61.269352 298.351166,8.358716 
	C313.520935,-0.397559 328.660736,-0.318083 343.820831,8.454821 
	C370.611511,23.958136 397.429871,39.413658 424.237000,54.888512 
	C488.948608,92.244324 553.649536,129.618744 618.385742,166.931808 
	C626.718018,171.734375 633.294739,178.086685 637.230225,186.924316 
	C638.686279,190.194046 639.754761,193.636383 641.000000,197.000000 
M158.172302,526.286499 
	C210.646027,556.580811 263.133301,586.851685 315.565979,617.216858 
	C319.457428,619.470520 322.778900,619.574280 326.719543,617.293945 
	C396.592560,576.861023 466.504944,536.496033 536.460449,496.206024 
	C540.334229,493.975006 542.109436,491.393646 542.105164,486.712494 
	C542.031250,405.729340 542.090637,324.745941 542.269653,243.762955 
	C542.280273,238.960983 540.570679,236.102203 536.502319,233.759109 
	C466.688751,193.551239 396.919403,153.266632 327.179871,112.930496 
	C323.160889,110.606010 319.634033,110.446838 315.540833,112.815041 
	C245.805786,153.161987 176.038086,193.452621 106.215668,233.648148 
	C101.995682,236.077484 100.057503,238.935120 100.064972,243.955856 
	C100.185158,324.774048 100.178238,405.592499 100.075432,486.410767 
	C100.069626,490.980469 101.652008,493.805054 105.595749,496.042145 
	C122.969299,505.897400 140.227585,515.955811 158.172302,526.286499 
z"/>
<path fill="#FAFDFE" opacity="1.000000" stroke="none" 
	d="
M157.849976,526.113525 
	C140.227585,515.955811 122.969299,505.897400 105.595749,496.042145 
	C101.652008,493.805054 100.069626,490.980469 100.075432,486.410767 
	C100.178238,405.592499 100.185158,324.774048 100.064972,243.955856 
	C100.057503,238.935120 101.995682,236.077484 106.215668,233.648148 
	C176.038086,193.452621 245.805786,153.161987 315.540833,112.815041 
	C319.634033,110.446838 323.160889,110.606010 327.179871,112.930496 
	C396.919403,153.266632 466.688751,193.551239 536.502319,233.759109 
	C540.570679,236.102203 542.280273,238.960983 542.269653,243.762955 
	C542.090637,324.745941 542.031250,405.729340 542.105164,486.712494 
	C542.109436,491.393646 540.334229,493.975006 536.460449,496.206024 
	C466.504944,536.496033 396.592560,576.861023 326.719543,617.293945 
	C322.778900,619.574280 319.457428,619.470520 315.565979,617.216858 
	C263.133301,586.851685 210.646027,556.580811 157.849976,526.113525 
M308.295563,597.222961 
	C311.172546,598.898743 314.177887,600.392090 316.891144,602.300598 
	C319.728912,604.296753 322.017365,604.116272 325.040283,602.362183 
	C388.829895,565.347229 452.687531,528.449585 516.528503,491.523193 
	C517.923035,490.716553 519.278381,489.842255 521.140015,488.700104 
	C480.242950,465.106079 439.980682,441.878296 399.009674,418.241638 
	C399.009674,441.720459 398.887665,464.036530 399.106110,486.349274 
	C399.153381,491.179810 397.373596,493.968445 393.289001,496.296509 
	C371.015198,508.992126 348.818939,521.825562 326.691956,534.775513 
	C322.612854,537.162842 319.188904,537.164368 315.101257,534.772766 
	C292.829498,521.742310 270.477264,508.847778 248.065399,496.059601 
	C244.295166,493.908356 242.701340,491.275055 242.739120,486.870483 
	C242.917831,466.039093 242.818619,445.205353 242.818481,424.372437 
	C242.818466,422.643860 242.818497,420.915253 242.818497,418.110443 
	C201.555923,441.944824 161.345963,465.171204 120.403053,488.820953 
	C183.404343,525.187134 245.521469,561.042908 308.295563,597.222961 
M347.100128,140.371399 
	C340.970245,136.850906 334.840363,133.330414 328.305237,129.577179 
	C328.305237,176.807343 328.305237,223.169769 328.305237,270.030914 
	C329.875336,269.202087 331.032623,268.638214 332.145264,267.996887 
	C350.174072,257.605255 368.230499,247.260727 386.195648,236.760025 
	C390.137756,234.455811 393.684387,233.820862 397.855499,236.261490 
	C420.269684,249.376602 442.740173,262.396240 465.257599,275.333282 
	C468.994537,277.480286 470.616852,280.224396 470.594574,284.598297 
	C470.460480,310.928711 470.474182,337.260345 470.585114,363.590973 
	C470.601929,367.575714 469.160736,370.105591 465.695770,372.030212 
	C456.965240,376.879486 448.364838,381.963257 439.716980,386.961182 
	C428.803070,393.268768 417.893829,399.584381 406.316010,406.282166 
	C447.154419,429.855743 487.280029,453.017822 527.962708,476.501526 
	C528.189514,474.467041 528.450378,473.217163 528.450745,471.967224 
	C528.470337,397.640228 528.494446,323.313171 528.326721,248.986542 
	C528.322266,247.018021 526.707153,244.197464 525.008911,243.212234 
	C465.971313,208.961182 406.833221,174.883362 347.100128,140.371399 
M113.529335,293.499695 
	C113.529335,354.230103 113.529335,414.960510 113.529335,476.836090 
	C154.702774,453.059906 194.833618,429.885773 235.613876,406.336639 
	C233.540298,405.075256 232.036407,404.120117 230.495468,403.229126 
	C212.629440,392.898346 194.809311,382.486298 176.849136,372.321747 
	C172.689789,369.967743 171.064453,366.951416 171.088242,362.256622 
	C171.218216,336.598480 171.233826,310.938812 171.077377,285.281006 
	C171.047195,280.332611 172.914062,277.325836 177.183640,274.900299 
	C199.325165,262.321716 221.391266,249.607697 243.359543,236.729156 
	C247.804092,234.123627 251.500137,234.181961 255.878677,236.775742 
	C273.491333,247.209183 291.238647,257.415436 308.945435,267.689697 
	C310.445587,268.560181 312.014252,269.312622 313.828125,270.265411 
	C313.828125,223.155350 313.828125,176.778641 313.828125,129.821976 
	C312.357452,130.610413 311.359467,131.110931 310.394043,131.667892 
	C245.954529,168.844574 181.526413,206.041046 117.049538,243.152817 
	C114.368126,244.696198 113.441803,246.491013 113.470299,249.513428 
	C113.605370,263.841095 113.529739,278.170746 113.529335,293.499695 
M412.307373,386.864227 
	C426.011780,378.988007 439.676605,371.041412 453.454803,363.296478 
	C456.126221,361.794861 457.083710,360.095367 457.061584,357.032349 
	C456.920685,337.545349 456.993073,318.056824 456.980072,298.568817 
	C456.979340,297.505219 456.842743,296.441711 456.741608,294.975983 
	C455.479187,295.574280 454.724915,295.869049 454.031525,296.269318 
	C413.106659,319.893219 372.202148,343.552490 331.231934,367.097504 
	C328.510345,368.661560 327.780182,370.490326 327.789093,373.467865 
	C327.928680,420.103577 327.953583,466.739624 328.023804,513.375610 
	C328.025879,514.743958 328.234192,516.112061 328.387024,517.976624 
	C347.126740,507.140717 365.308044,496.730133 383.313477,486.023773 
	C384.766479,485.159790 385.700348,482.269287 385.713501,480.312744 
	C385.874512,456.328552 385.923889,432.342072 385.726715,408.358429 
	C385.688782,403.740295 387.238739,400.976471 391.286591,398.842224 
	C398.200745,395.196625 404.874573,391.095306 412.307373,386.864227 
M225.571686,263.032745 
	C214.536057,269.404266 203.500443,275.775818 192.090439,282.363495 
	C193.333817,283.179230 194.000580,283.665405 194.711121,284.075836 
	C235.639938,307.717865 276.589203,331.324646 317.466095,355.056122 
	C320.149933,356.614258 322.048889,356.497772 324.649506,354.983459 
	C348.811401,340.914368 373.055511,326.986450 397.269958,313.007477 
	C414.701355,302.944366 432.123932,292.865936 449.763275,282.671295 
	C448.999023,282.044281 448.552246,281.562378 448.008514,281.248444 
	C430.424469,271.096436 412.784668,261.039551 395.286041,250.742645 
	C392.454681,249.076584 390.672394,250.257767 388.506958,251.509674 
	C368.335663,263.171417 348.079712,274.689636 328.026855,286.551300 
	C323.127197,289.449554 319.125214,289.585876 314.191711,286.672272 
	C294.129913,274.824249 273.835846,263.369843 253.757935,251.548645 
	C250.555237,249.662994 248.239548,249.726151 245.193924,251.635132 
	C238.994003,255.521194 232.557968,259.030518 225.571686,263.032745 
M185.010605,319.500000 
	C185.010651,331.825562 185.128632,344.153046 184.931061,356.475433 
	C184.879074,359.717194 185.830383,361.505371 188.709763,363.137512 
	C209.406662,374.869415 229.925522,386.916199 250.658051,398.583740 
	C255.035446,401.047211 256.647980,404.044250 256.610504,408.956940 
	C256.430023,432.607422 256.609650,456.260620 256.445831,479.911346 
	C256.420563,483.559540 257.587677,485.558350 260.758240,487.349518 
	C277.126312,496.596436 293.350891,506.097168 309.638336,515.487183 
	C310.883698,516.205261 312.228119,516.751404 314.149811,517.678040 
	C314.149811,515.444458 314.149780,513.828491 314.149780,512.212585 
	C314.149780,466.241333 314.088165,420.269897 314.255585,374.299255 
	C314.270508,370.201447 312.846100,368.102417 309.449921,366.154205 
	C269.329376,343.139740 229.287292,319.988525 189.215958,296.888184 
	C188.004639,296.189911 186.699448,295.654449 185.010605,294.835938 
	C185.010605,303.186462 185.010605,310.843262 185.010605,319.500000 
z"/>
<path fill="#22B5C2" opacity="1.000000" stroke="none" 
	d="
M307.967072,597.060852 
	C245.521469,561.042908 183.404343,525.187134 120.403053,488.820953 
	C161.345963,465.171204 201.555923,441.944824 242.818497,418.110443 
	C242.818497,420.915253 242.818466,422.643860 242.818481,424.372437 
	C242.818619,445.205353 242.917831,466.039093 242.739120,486.870483 
	C242.701340,491.275055 244.295166,493.908356 248.065399,496.059601 
	C270.477264,508.847778 292.829498,521.742310 315.101257,534.772766 
	C319.188904,537.164368 322.612854,537.162842 326.691956,534.775513 
	C348.818939,521.825562 371.015198,508.992126 393.289001,496.296509 
	C397.373596,493.968445 399.153381,491.179810 399.106110,486.349274 
	C398.887665,464.036530 399.009674,441.720459 399.009674,418.241638 
	C439.980682,441.878296 480.242950,465.106079 521.140015,488.700104 
	C519.278381,489.842255 517.923035,490.716553 516.528503,491.523193 
	C452.687531,528.449585 388.829895,565.347229 325.040283,602.362183 
	C322.017365,604.116272 319.728912,604.296753 316.891144,602.300598 
	C314.177887,600.392090 311.172546,598.898743 307.967072,597.060852 
z"/>
<path fill="#21B5C2" opacity="1.000000" stroke="none" 
	d="
M347.404785,140.576141 
	C406.833221,174.883362 465.971313,208.961182 525.008911,243.212234 
	C526.707153,244.197464 528.322266,247.018021 528.326721,248.986542 
	C528.494446,323.313171 528.470337,397.640228 528.450745,471.967224 
	C528.450378,473.217163 528.189514,474.467041 527.962708,476.501526 
	C487.280029,453.017822 447.154419,429.855743 406.316010,406.282166 
	C417.893829,399.584381 428.803070,393.268768 439.716980,386.961182 
	C448.364838,381.963257 456.965240,376.879486 465.695770,372.030212 
	C469.160736,370.105591 470.601929,367.575714 470.585114,363.590973 
	C470.474182,337.260345 470.460480,310.928711 470.594574,284.598297 
	C470.616852,280.224396 468.994537,277.480286 465.257599,275.333282 
	C442.740173,262.396240 420.269684,249.376602 397.855499,236.261490 
	C393.684387,233.820862 390.137756,234.455811 386.195648,236.760025 
	C368.230499,247.260727 350.174072,257.605255 332.145264,267.996887 
	C331.032623,268.638214 329.875336,269.202087 328.305237,270.030914 
	C328.305237,223.169769 328.305237,176.807343 328.305237,129.577179 
	C334.840363,133.330414 340.970245,136.850906 347.404785,140.576141 
z"/>
<path fill="#21B5C2" opacity="1.000000" stroke="none" 
	d="
M113.529251,292.999695 
	C113.529739,278.170746 113.605370,263.841095 113.470299,249.513428 
	C113.441803,246.491013 114.368126,244.696198 117.049538,243.152817 
	C181.526413,206.041046 245.954529,168.844574 310.394043,131.667892 
	C311.359467,131.110931 312.357452,130.610413 313.828125,129.821976 
	C313.828125,176.778641 313.828125,223.155350 313.828125,270.265411 
	C312.014252,269.312622 310.445587,268.560181 308.945435,267.689697 
	C291.238647,257.415436 273.491333,247.209183 255.878677,236.775742 
	C251.500137,234.181961 247.804092,234.123627 243.359543,236.729156 
	C221.391266,249.607697 199.325165,262.321716 177.183640,274.900299 
	C172.914062,277.325836 171.047195,280.332611 171.077377,285.281006 
	C171.233826,310.938812 171.218216,336.598480 171.088242,362.256622 
	C171.064453,366.951416 172.689789,369.967743 176.849136,372.321747 
	C194.809311,382.486298 212.629440,392.898346 230.495468,403.229126 
	C232.036407,404.120117 233.540298,405.075256 235.613876,406.336639 
	C194.833618,429.885773 154.702774,453.059906 113.529335,476.836090 
	C113.529335,414.960510 113.529335,354.230103 113.529251,292.999695 
z"/>
<path fill="#22B5C2" opacity="1.000000" stroke="none" 
	d="
M411.978363,387.024841 
	C404.874573,391.095306 398.200745,395.196625 391.286591,398.842224 
	C387.238739,400.976471 385.688782,403.740295 385.726715,408.358429 
	C385.923889,432.342072 385.874512,456.328552 385.713501,480.312744 
	C385.700348,482.269287 384.766479,485.159790 383.313477,486.023773 
	C365.308044,496.730133 347.126740,507.140717 328.387024,517.976624 
	C328.234192,516.112061 328.025879,514.743958 328.023804,513.375610 
	C327.953583,466.739624 327.928680,420.103577 327.789093,373.467865 
	C327.780182,370.490326 328.510345,368.661560 331.231934,367.097504 
	C372.202148,343.552490 413.106659,319.893219 454.031525,296.269318 
	C454.724915,295.869049 455.479187,295.574280 456.741608,294.975983 
	C456.842743,296.441711 456.979340,297.505219 456.980072,298.568817 
	C456.993073,318.056824 456.920685,337.545349 457.061584,357.032349 
	C457.083710,360.095367 456.126221,361.794861 453.454803,363.296478 
	C439.676605,371.041412 426.011780,378.988007 411.978363,387.024841 
z"/>
<path fill="#22B5C2" opacity="1.000000" stroke="none" 
	d="
M225.895447,262.863922 
	C232.557968,259.030518 238.994003,255.521194 245.193924,251.635132 
	C248.239548,249.726151 250.555237,249.662994 253.757935,251.548645 
	C273.835846,263.369843 294.129913,274.824249 314.191711,286.672272 
	C319.125214,289.585876 323.127197,289.449554 328.026855,286.551300 
	C348.079712,274.689636 368.335663,263.171417 388.506958,251.509674 
	C390.672394,250.257767 392.454681,249.076584 395.286041,250.742645 
	C412.784668,261.039551 430.424469,271.096436 448.008514,281.248444 
	C448.552246,281.562378 448.999023,282.044281 449.763275,282.671295 
	C432.123932,292.865936 414.701355,302.944366 397.269958,313.007477 
	C373.055511,326.986450 348.811401,340.914368 324.649506,354.983459 
	C322.048889,356.497772 320.149933,356.614258 317.466095,355.056122 
	C276.589203,331.324646 235.639938,307.717865 194.711121,284.075836 
	C194.000580,283.665405 193.333817,283.179230 192.090439,282.363495 
	C203.500443,275.775818 214.536057,269.404266 225.895447,262.863922 
z"/>
<path fill="#21B5C2" opacity="1.000000" stroke="none" 
	d="
M185.010605,319.000000 
	C185.010605,310.843262 185.010605,303.186462 185.010605,294.835938 
	C186.699448,295.654449 188.004639,296.189911 189.215958,296.888184 
	C229.287292,319.988525 269.329376,343.139740 309.449921,366.154205 
	C312.846100,368.102417 314.270508,370.201447 314.255585,374.299255 
	C314.088165,420.269897 314.149780,466.241333 314.149780,512.212585 
	C314.149780,513.828491 314.149811,515.444458 314.149811,517.678040 
	C312.228119,516.751404 310.883698,516.205261 309.638336,515.487183 
	C293.350891,506.097168 277.126312,496.596436 260.758240,487.349518 
	C257.587677,485.558350 256.420563,483.559540 256.445831,479.911346 
	C256.609650,456.260620 256.430023,432.607422 256.610504,408.956940 
	C256.647980,404.044250 255.035446,401.047211 250.658051,398.583740 
	C229.925522,386.916199 209.406662,374.869415 188.709763,363.137512 
	C185.830383,361.505371 184.879074,359.717194 184.931061,356.475433 
	C185.128632,344.153046 185.010651,331.825562 185.010605,319.000000 
z"/>
</svg>