<svg
width="800"
height="800"
viewBox="0 0 800 800"
fill="none"
class="contact-svg github"
xmlns="http://www.w3.org/2000/svg"
>
<path
    d="M700 400C700 565.687 565.687 700 400 700C234.315 700 100 565.687 100 400C100 234.315 234.315 100 400 100C565.687 100 700 234.315 700 400Z"
    stroke = "#3d4690"
    stroke-width="66.6667"
/>
<path
    d="M457.234 296.059C419.604 285.652 380.397 285.652 342.767 296.059C342.124 296.237 341.481 296.418 340.841 296.603C336.891 297.74 332.642 296.967 329.357 294.497C289.771 264.731 269.093 266.061 263.976 267.054C263.154 267.214 262.529 267.827 262.245 268.615C262.173 268.814 262.102 269.013 262.031 269.212C253.88 292.169 252.635 317.605 258.426 341.417C258.764 342.804 259.124 344.184 259.509 345.557C259.534 345.647 259.56 345.737 259.585 345.827C259.919 347.007 259.674 348.277 258.927 349.254C258.359 349.994 257.799 350.744 257.248 351.5C241.494 373.13 232.97 400.71 233.346 429.157C233.346 544.664 293.466 571.194 351.167 579.037L352.361 579.194C384.491 583.997 415.291 583.7 447.317 578.264L448.127 578.167C506.107 571.13 566.654 545.29 566.654 429.157C567.031 400.71 558.507 373.13 542.754 351.5C542.247 350.807 541.734 350.117 541.214 349.434L541.174 349.384C540.367 348.327 540.101 346.95 540.461 345.67C540.857 344.257 541.227 342.84 541.571 341.417C547.367 317.537 546.051 292.026 537.764 269.059C537.711 268.918 537.661 268.777 537.611 268.637C537.317 267.835 536.681 267.21 535.841 267.048C530.701 266.055 510.137 264.794 470.644 294.497C467.361 296.966 463.111 297.733 459.161 296.602C458.521 296.418 457.877 296.237 457.234 296.059Z"
    stroke = "#3d4690"
    stroke-width="66.6667"
    stroke-linecap="round"
    stroke-linejoin="round"

/>
</svg>