<svg width="800" height="800" viewBox="0 0 800 800" fill="none" xmlns="http://www.w3.org/2000/svg">
    <path d="M400 675C341.033 675 298.6 674.971 265.517 671.763C232.812 668.592 211.892 662.5 195.196 652.008C176.114 640.02 159.978 623.885 147.987 604.804C137.5 588.108 131.404 567.187 128.238 534.483C125.029 501.4 125 458.967 125 400C125 341.033 125.029 298.6 128.238 265.517C131.404 232.812 137.5 211.892 147.987 195.196C159.977 176.113 176.113 159.977 195.196 147.987C211.892 137.5 232.812 131.404 265.517 128.238C298.596 125.029 341.029 125 400 125C458.967 125 501.4 125.029 534.483 128.238C567.187 131.404 588.108 137.5 604.804 147.987C623.885 159.978 640.02 176.114 652.008 195.196C662.5 211.892 668.592 232.812 671.763 265.517C674.971 298.6 675 341.033 675 400C675 458.967 674.971 501.4 671.763 534.483C668.592 567.187 662.5 588.108 652.008 604.804C640.019 623.885 623.885 640.019 604.804 652.008C588.108 662.5 567.187 668.592 534.483 671.763C501.4 674.971 458.967 675 400 675Z" stroke="#3d4690" stroke-width="66.7"/>
    <path d="M400 525C469.036 525 525 469.036 525 400C525 330.964 469.036 275 400 275C330.964 275 275 330.964 275 400C275 469.036 330.964 525 400 525Z"     stroke = "#3d4690" stroke-width="66.7"/>
    <path d="M562.5 275C583.211 275 600 258.211 600 237.5C600 216.789 583.211 200 562.5 200C541.789 200 525 216.789 525 237.5C525 258.211 541.789 275 562.5 275Z" fill="#3d4690"/>
</svg>