<svg
width="800"
height="800"
viewBox="0 0 800 800"
class="contact-svg linkedin"
fill="none"
xmlns="http://www.w3.org/2000/svg"
>
<g clip-path="url(#clip0_371_15)">
    <path
    d="M600 100C655.23 100 700 144.772 700 200V600C700 655.23 655.23 700 600 700H200C144.772 700 100 655.23 100 600V200C100 144.772 144.772 100 200 100H600ZM600 166.667H200C181.591 166.667 166.667 181.591 166.667 200V600C166.667 618.41 181.591 633.333 200 633.333H600C618.41 633.333 633.333 618.41 633.333 600V200C633.333 181.591 618.41 166.667 600 166.667ZM266.667 333.333C283.761 333.333 297.85 346.201 299.776 362.779L300 366.667V533.333C300 551.743 285.076 566.667 266.667 566.667C249.572 566.667 235.483 553.799 233.558 537.221L233.333 533.333V366.667C233.333 348.257 248.257 333.333 266.667 333.333ZM366.667 300C383.043 300 396.66 311.809 399.47 327.376C406.21 323.478 413.167 319.964 420.223 316.946C442.463 307.432 475.773 302.198 505.83 311.65C521.587 316.603 537.44 325.969 549.193 341.853C559.682 356.034 565.33 373.28 566.456 392.642L566.667 400V533.333C566.667 551.74 551.743 566.667 533.333 566.667C516.238 566.667 502.15 553.796 500.224 537.22L500 533.333V400C500 389.023 497.337 383.857 495.6 381.503C493.81 379.087 490.913 376.843 485.837 375.247C474.227 371.597 457.537 373.493 446.443 378.24C429.742 385.383 414.491 396.571 404.131 406.945L400 411.327V533.333C400 551.743 385.077 566.667 366.667 566.667C349.572 566.667 335.483 553.799 333.558 537.221L333.333 533.333V333.333C333.333 314.924 348.257 300 366.667 300ZM266.667 233.333C285.076 233.333 300 248.257 300 266.667C300 285.076 285.076 300 266.667 300C248.257 300 233.333 285.076 233.333 266.667C233.333 248.257 248.257 233.333 266.667 233.333Z"
    fill="#3d4690"
    />
</g>
<defs>
    <clipPath id="clip0_371_15">
    <rect width="800" height="800" fill="white" />
    </clipPath>
</defs>
</svg>